<?xml version="1.0" encoding="UTF-8"?>
<svg id="emblema_C1" data-name="emblema C1" xmlns="http://www.w3.org/2000/svg" version="1.1" viewBox="0 0 962 1000">
  <defs>
    <style>
      .cls-1 {
        fill: #133579;
      }

      .cls-1, .cls-2, .cls-3, .cls-4 {
        stroke-width: 0px;
      }

      .cls-2 {
        fill: #e42613;
      }

      .cls-3 {
        fill: #fff;
      }

      .cls-4 {
        fill: #ffd300;
      }
    </style>
  </defs>
  <polygon class="cls-2" points="0 0 0 167.4 481.9 998.4 962 167.4 962 0 0 0"/>
  <path class="cls-3" d="M707.4,271.7s-16.1,83.9-41.6,131.1c-46.4,85.8-186.8,166.3-186.8,166.3,0,0-140.4-80.4-186.8-166.2-25.5-47.2-41.6-131.2-41.6-131.2,0,0,71.1,11.7,116.5,8.3,44.6-3.3,111.9-24.6,111.9-24.6,0,0,70.7,21.8,117.5,24.6,43.3,2.6,111-8.3,111-8.3"/>
  <path class="cls-4" d="M481.4,949.1L27.6,166.5V26.2h905.9v140.3l-452.1,782.5ZM905.6,168.4H55.5l425.9,726.9L905.6,168.4ZM54.7,144.2h851.7V53.9H54.7v90.2ZM631.6,234.7c-59.8,1-151-26.1-151-26.1,0,0-86.9,26-143.9,26-57.2,0-144.2-26-144.2-26,0,0,11.7,128.1,48,199.4,56.9,111.8,240.1,213.7,240.1,213.7,0,0,183.3-101.9,240.2-213.8,36.2-71.3,47.9-199.3,47.9-199.3,0,0-82.7,25.1-137.1,26.1M693.3,403.2c-50.5,98.9-212.6,189.2-212.6,189.2,0,0-162.1-90.3-212.6-189.1-29.2-57.2-42.5-159.1-42.5-159.1,0,0,77.6,16,127.7,14.4,50.4-1.7,127.4-23.1,127.4-23.1,0,0,80.8,22.1,133.7,23.1,47.6.9,121.3-14.4,121.3-14.4,0,0-13.2,101.9-42.4,159.1M436.9,672v-4.4c0-10.6-6.7-15-17.9-15s-17.6,5.3-17.6,16.5v21.3c0,10.6,4.7,16.5,16.8,16.5s18.8-6.2,18.8-15.2v-6.4h-13.1v4.7c0,3.2-.4,7.5-4.8,7.5s-4.6-1.7-4.6-4.6v-25.7c0-3.4,1-5.5,5.1-5.4,2.5,0,4.2,2.3,4.2,6.7v3.3h13.1ZM471.7,705.8v-10.4h-16v-41.5h-13.1v52h29.1ZM476,691.4c0,10.7,6.5,15.6,17.6,15.6s17.6-6.8,17.6-15.6v-37.6h-13.1v38.9c0,2.2-1,5-4.5,5s-4.5-2.2-4.5-4.6v-39.2h-13.1v37.6ZM530.7,683.7c5.6.2,9.3,0,9.3,6.1s-2.8,6.6-9.3,6.7v-12.8ZM530.7,663.2c4.6,0,8.4-.2,8.4,5s-2.7,5.8-8.4,6.2v-11.1ZM536,705.8c10.6,0,17-4.5,17-15s-1.3-9.2-7.2-12.4h0c4.6-2.4,6.4-6.5,6.4-11.1,0-10.5-7.8-13.4-17.7-13.4h-17v51.9h18.5ZM436.9,672v-4.4c0-10.6-6.7-15-17.9-15s-17.6,5.3-17.6,16.5v21.3c0,10.6,4.7,16.5,16.8,16.5s18.8-6.2,18.8-15.2v-6.4h-13.1v4.7c0,3.2-.4,7.5-4.8,7.5s-4.6-1.7-4.6-4.6v-25.7c0-3.4,1-5.5,5.1-5.4,2.5,0,4.2,2.3,4.2,6.7v3.3h13.1ZM471.7,705.8v-10.4h-16v-41.5h-13.1v52h29.1ZM476,691.4c0,10.7,6.5,15.6,17.6,15.6s17.6-6.8,17.6-15.6v-37.6h-13.1v38.9c0,2.2-1,5-4.5,5s-4.5-2.2-4.5-4.6v-39.2h-13.1v37.6ZM530.7,683.7c5.6.2,9.3,0,9.3,6.1s-2.8,6.6-9.3,6.7v-12.8ZM530.7,663.2c4.6,0,8.4-.2,8.4,5s-2.7,5.8-8.4,6.2v-11.1ZM536,705.8c10.6,0,17-4.5,17-15s-1.3-9.2-7.2-12.4h0c4.6-2.4,6.4-6.5,6.4-11.1,0-10.5-7.8-13.4-17.7-13.4h-17v51.9h18.5ZM110.6,102.1c-.8,3.6-2,6.3-3.7,8.2-1.7,1.9-4.2,2.8-7.6,2.8s-6.1-1.2-8-3.5c-1.9-2.3-2.9-6.6-2.9-12.9s.8-8.8,2.4-11.1c2.1-3.2,5.1-4.8,9.1-4.8s3.3.4,4.7,1.1c1.4.7,2.6,1.7,3.6,3.1.6.8,1.2,2.1,1.7,3.8l15.4-3.4c-2-6-5-10.4-9.1-13.3-4.1-2.9-9.7-4.3-16.8-4.3s-16.1,2.5-21.1,7.5c-5,5-7.5,12.2-7.5,21.6s1.4,12.8,4.2,17.2c2.8,4.5,6.2,7.7,10.1,9.4,3.9,1.8,8.9,2.7,15,2.7s9.2-.7,12.5-2.2c3.3-1.5,6-3.6,8.2-6.5,2.2-2.9,3.8-6.5,4.9-10.8l-15.3-4.6M132.2,97c0-9.2,2.6-16.4,7.7-21.6,5.1-5.1,12.3-7.7,21.5-7.7s16.6,2.5,21.7,7.6c5.1,5,7.6,12.1,7.6,21.2s-1.1,12-3.3,16.3c-2.2,4.2-5.4,7.5-9.6,9.9-4.2,2.3-9.4,3.5-15.7,3.5s-11.6-1-15.8-3c-4.2-2-7.6-5.3-10.2-9.6-2.6-4.4-3.9-9.9-3.9-16.5M149.6,97.1c0,5.7,1.1,9.8,3.2,12.3,2.1,2.5,5,3.7,8.6,3.7s6.7-1.2,8.7-3.7c2.1-2.4,3.1-6.8,3.1-13.2s-1.1-9.2-3.2-11.7c-2.1-2.4-5.1-3.7-8.7-3.7s-6.3,1.2-8.5,3.7c-2.1,2.5-3.2,6.6-3.2,12.4M200.2,125.2h16.4v-31.1l21.1,31.1h16.5v-56.5h-16.5v31.3l-21.3-31.3h-16.3v56.5ZM316,117c2.2,1.5,3.6,2.5,4.3,2.9,1,.6,2.4,1.2,4.1,2l-4.9,9.8c-2.4-1.2-4.9-2.6-7.2-4.2-2.4-1.6-4.1-2.9-5-3.7-3.8,1.7-8.7,2.5-14.5,2.5-8.6,0-15.4-2.2-20.3-6.7-5.9-5.3-8.8-12.7-8.8-22.3s2.6-16.5,7.7-21.7c5.1-5.2,12.3-7.7,21.5-7.7s16.6,2.5,21.7,7.6c5.1,5,7.6,12.2,7.6,21.6s-2.1,15-6.2,20.1M302.6,108c1.4-2.5,2.1-6.2,2.1-11.2s-1.1-9.8-3.2-12.2c-2.1-2.4-5.1-3.7-8.8-3.7s-6.3,1.3-8.4,3.8c-2.2,2.5-3.2,6.4-3.2,11.7s1.1,10.5,3.2,13,5,3.7,8.7,3.7,2.3-.1,3.3-.3c-1.5-1.4-3.8-2.8-6.9-4l2.7-6.3c1.5.3,2.7.6,3.6,1,.8.4,2.5,1.5,5,3.2.6.4,1.2.8,1.9,1.3M368.4,103.2c0,3.1-.9,5.6-2.6,7.3-1.7,1.7-4.1,2.6-7.1,2.6s-5.4-.9-7.1-2.6c-1.7-1.7-2.6-4.1-2.6-7.2v-34.5h-17.4v33.7c0,2.8.5,6,1.6,9.6.7,2.2,1.9,4.4,3.7,6.5,1.8,2.1,3.8,3.7,6,4.9,2.2,1.1,4.9,1.9,8.2,2.3,3.2.4,6.2.6,9,.6,4.8,0,8.8-.6,12.2-1.9,2.4-.9,4.8-2.5,7-4.7,2.2-2.2,3.9-4.8,4.9-7.8,1-3,1.5-6.1,1.5-9.5v-33.7h-17.4v34.5ZM398,125.2h17.5v-56.5h-17.5v56.5ZM425,106.5c.5,5.7,2.6,10.4,6.3,14.1,3.7,3.7,10.4,5.5,20,5.5s10-.8,13.6-2.4c3.6-1.6,6.4-3.9,8.4-7,2-3.1,3-6.4,3-10s-.7-5.9-2.3-8.4c-1.5-2.5-3.9-4.6-7.2-6.3-3.3-1.7-8.8-3.3-16.4-5-3.1-.6-5-1.3-5.9-2.1-.8-.7-1.3-1.5-1.3-2.4s.5-2.3,1.5-3.1c1-.9,2.5-1.3,4.6-1.3s4.4.6,5.8,1.7,2.3,3,2.8,5.6l16.5-1c-.7-5.9-3-10.1-6.8-12.8-3.8-2.7-9.3-4-16.5-4s-10.5.7-13.9,2.2c-3.4,1.5-5.9,3.5-7.6,6.1-1.7,2.6-2.5,5.3-2.5,8.2,0,4.4,1.6,8.1,4.9,10.9,3.3,2.9,8.7,5.2,16.4,6.9,4.7,1,7.6,2.1,8.9,3.3s1.9,2.5,1.9,3.9-.7,2.9-2,4.1c-1.4,1.2-3.3,1.8-5.8,1.8s-5.9-1.1-7.7-3.4c-1.1-1.4-1.8-3.5-2.2-6.2l-16.6,1M481.1,82.7h17.8v42.6h17.5v-42.6h17.8v-14h-53.1v14ZM571.4,115.9h-19.8l-2.8,9.3h-17.8l21.2-56.5h19l21.2,56.5h-18.3l-2.8-9.3ZM567.8,103.7l-6.2-20.3-6.2,20.3h12.4ZM598.3,68.7h25.9c5.1,0,9.2.7,12.4,2.1,3.2,1.4,5.8,3.4,7.8,6,2.1,2.6,3.6,5.6,4.5,9.1.9,3.5,1.4,7.1,1.4,11,0,6-.7,10.7-2.1,14-1.4,3.3-3.3,6.1-5.7,8.4-2.4,2.3-5.1,3.8-7.9,4.5-3.8,1-7.3,1.6-10.4,1.6h-25.9v-56.5ZM615.7,81.5v30.9h4.3c3.7,0,6.2-.4,7.8-1.2,1.5-.8,2.7-2.2,3.6-4.2.9-2,1.3-5.3,1.3-9.8s-1-10.1-2.9-12.3c-2-2.2-5.2-3.3-9.7-3.3h-4.4ZM657.2,97c0-9.2,2.6-16.4,7.7-21.6,5.1-5.1,12.3-7.7,21.5-7.7s16.6,2.5,21.7,7.6c5.1,5,7.6,12.1,7.6,21.2s-1.1,12-3.3,16.3c-2.2,4.2-5.4,7.5-9.6,9.9-4.2,2.3-9.4,3.5-15.7,3.5s-11.7-1-15.8-3c-4.2-2-7.5-5.3-10.1-9.6-2.6-4.4-3.9-9.9-3.9-16.5M674.7,97.1c0,5.7,1.1,9.8,3.2,12.3s5,3.7,8.6,3.7,6.7-1.2,8.7-3.7c2.1-2.4,3.1-6.8,3.1-13.2s-1.1-9.2-3.2-11.7c-2.2-2.4-5.1-3.7-8.7-3.7s-6.3,1.2-8.5,3.7c-2.1,2.5-3.2,6.6-3.2,12.4M725.4,125.2v-56.5h29.1c5.4,0,9.5.5,12.4,1.4,2.9.9,5.2,2.6,6.9,5.2,1.8,2.5,2.6,5.5,2.6,9.2s-.7,5.8-2,8.1c-1.3,2.3-3.2,4.1-5.5,5.5-1.5.9-3.6,1.6-6.1,2.2,2.1.7,3.6,1.4,4.5,2.1.6.5,1.6,1.5,2.8,3,1.2,1.5,2,2.7,2.4,3.5l8.4,16.4h-19.7l-9.3-17.3c-1.2-2.2-2.2-3.7-3.1-4.4-1.3-.9-2.7-1.3-4.3-1.3h-1.5v22.9h-17.5ZM742.9,91.6h7.4c.8,0,2.3-.3,4.6-.8,1.2-.2,2.1-.8,2.8-1.8.7-.9,1.1-2,1.1-3.3,0-1.8-.6-3.2-1.7-4.2-1.1-1-3.3-1.5-6.5-1.5h-7.7v11.5ZM786.5,125.2h47.6v-12.8h-30.1v-11.1h27.2v-11.5h-27.2v-9h29.3v-12.1h-46.8v56.5ZM840.5,106.5c.5,5.7,2.6,10.4,6.3,14.1,3.7,3.7,10.4,5.5,20,5.5s10-.8,13.6-2.4c3.6-1.6,6.4-3.9,8.4-7,2-3.1,3-6.4,3-10s-.7-5.9-2.3-8.4c-1.5-2.5-3.9-4.6-7.2-6.3-3.3-1.7-8.8-3.3-16.4-5-3.1-.6-5-1.3-5.9-2.1-.8-.7-1.3-1.5-1.3-2.4s.5-2.3,1.5-3.1c1-.9,2.5-1.3,4.6-1.3s4.4.6,5.8,1.7c1.4,1.2,2.3,3,2.8,5.6l16.5-1c-.7-5.9-3-10.1-6.8-12.8-3.8-2.7-9.3-4-16.5-4s-10.5.7-13.9,2.2c-3.4,1.5-5.9,3.5-7.6,6.1-1.7,2.6-2.5,5.3-2.5,8.2,0,4.4,1.6,8.1,4.9,10.9,3.3,2.9,8.7,5.2,16.4,6.9,4.7,1,7.6,2.1,8.9,3.3,1.3,1.2,1.9,2.5,1.9,3.9s-.7,2.9-2,4.1c-1.4,1.2-3.3,1.8-5.8,1.8s-5.9-1.1-7.7-3.4c-1.1-1.4-1.8-3.5-2.2-6.2l-16.6,1"/>
  <polygon class="cls-1" points="378.2 455.6 383.5 453.7 778.3 267 364 408.1 360.2 409.9 346.6 353.9 359.6 332.1 283.7 353.9 311.9 366.9 331.3 423.6 281.5 447.2 266.3 425.5 242.5 432 279.4 523.2 303.2 512.3 298.9 484.1 350.8 465.5 383.5 523.2 377 551.4 435.5 516.7 405.2 503.6 378.2 455.6"/>
</svg>