<?xml version="1.0" encoding="UTF-8"?><svg width="90.09" height="64.96" viewBox="0 0 90.09 64.96" xmlns="http://www.w3.org/2000/svg"><defs><clipPath id="b"><path transform="matrix(1 0 0 -1 -124.14 748.61)" d="m124.14 683.64h90.09v64.97h-90.09z" clip-rule="evenodd"/></clipPath><clipPath id="a"><path transform="matrix(1 0 0 -1 -124.14 748.61)" d="m166.87 733.31s-5.1-2.63-2.77-11.09c0 0 1.52-6.87-4.27-9.81 0 0-0.67-0.02-2.73 2.92s-3.15 2.09-3.15 2.09 0.7-1.41 0.41-1.68-3.21-0.85-3.21-0.85 0.86-5.33 8.07-4.42c0 0 2.46-2.97 4.91-2.76 0 0 0.91-1.84 1.94-2.18 1.03-0.33 1.73-0.18 2.06 0.12 0.33 0.31 0.73 0.58 1.24 0.43 0.52-0.15 1.09-1.09 2.09-1.06s1.91 2.45 2.67 2.72c0.76 0.28 9.09 2.34 7.39 10.15 0 0 3.6 2.85 2.48 4.88 0 0-0.94-0.68-1.48-0.52 0 0 1.94 1.58 1.68 2.78 0 0-1.07-1.15-2-0.59-0.92 0.56-1.33 5.09-1.65 6.13-0.32 1.05-2.03 6.3-10.12 4.3l-0.24 1.5s-0.59-0.12-1.06-1.44c0 0-0.5 1.76-0.18 3.08 0 0-2.26-1.27-2.08-4.7"/></clipPath></defs><g clip-path="url(#b)"><path transform="matrix(1 0 0 -1 15.28 1.77)" d="m0 0 60.74-0.07c10.25-0.01 15.98-13.15 9.48-20.96l-29.06-34.89c-2.84-3.42-7.82-5.86-12.27-5.48-5 0.43-7.58 2.25-10.52 5.81l-28.88 34.9c-6.77 8.18-1.11 20.7 10.51 20.69" fill="#2752a4"/><path transform="matrix(1 0 0 -1 15.28 5.82)" d="m0 0c-4.2 0.01-7.96-2.36-9.07-6.53-0.72-2.68-0.08-5.38 1.69-7.51l28.88-34.91c2.35-2.84 4-4.02 7.74-4.35 3.14-0.26 6.83 1.66 8.81 4.04l29.06 34.89c4.28 5.15 0.47 14.3-6.37 14.3z" fill="#f9d70c"/><path transform="matrix(1 0 0 -1 15.27 9.66)" d="m0 0c-2.46 0-4.7-1.21-5.37-3.69-0.39-1.48-0.02-2.9 0.95-4.08l20.98-25.36 7.9-9.54c1.68-2.03 2.45-2.74 5.11-2.97 1.87-0.16 4.38 1.27 5.54 2.66l29.06 34.89c2.21 2.67 0.15 8.02-3.43 8.02z" fill="#2752a4"/><path transform="matrix(1 0 0 -1 42.07 42.77)" d="m0 0s0.27-1.17-0.03-1.76-1.23-1.22-0.91-2.22 1.68-1.7 2.14-2.14c0.45-0.44 0.8-3.04 2.65-2.71 0 0 0.8 0.21 0.22 1-0.57 0.79-2.84 1.91-2.25 3.36 0 0 0.63 0.17 2.65-1.27 2.01-1.44 2.36-1.03 2.42-0.38s-1.19 1.68-3.85 2.17c-2.65 0.48-2.06 3.81-2.06 3.81z" fill="#f7acba"/><path transform="matrix(1 0 0 -1 47.19 43.23)" d="m0 0s0.26-1.05 0-1.44c-0.26-0.38-1.08-0.42-1.17-0.77-0.08-0.35-0.23-0.95 1.06-0.66 1.28 0.28 2.5 0.13 3.42-0.61 0.92-0.75 2.05-1.58 2.89-1.32 0.85 0.26 0.59 1.15 0.12 1.53s-2.87 0.57-3.39 1.03c-0.51 0.45 0.64 0.48 0.9 0.48 0.25 0 1.01-0.04 2.31-0.47 1.31-0.42 1.85 0.15 1.65 0.7-0.19 0.55-2.81 1.45-6.09 0.17 0 0-0.82-0.28-0.93 0.24-0.1 0.51-0.16 1.39-0.16 1.39z" fill="#f7acba"/><path transform="matrix(1 0 0 -1 60.06 23.58)" d="m0 0s-1.07-1.15-2-0.59c-0.92 0.56-1.33 5.09-1.65 6.13-0.32 1.05-2.03 6.3-10.12 4.31l-0.24 1.5s-0.59-0.13-1.06-1.44c0 0-0.5 1.75-0.18 3.07 0 0-2.26-1.27-2.08-4.69 0 0-5.1-2.64-2.77-11.09 0 0 1.51-6.88-4.27-9.82 0 0-0.67-0.01-2.73 2.93-2.06 2.93-3.15 2.09-3.15 2.09s0.7-1.41 0.41-1.69c-0.29-0.27-3.21-0.84-3.21-0.84s0.86-5.33 8.07-4.43c0 0 2.46-2.96 4.91-2.75 0 0 0.91-1.85 1.94-2.18 1.03-0.34 1.73-0.19 2.06 0.12 0.33 0.3 0.73 0.57 1.24 0.42 0.52-0.15 1.09-1.09 2.09-1.06s1.91 2.46 2.67 2.73 9.09 2.33 7.39 10.15c0 0 3.6 2.84 2.48 4.87 0 0-0.94-0.68-1.48-0.51 0 0 1.94 1.57 1.68 2.77" fill="#fff"/><g clip-path="url(#a)"><path transform="matrix(1 0 0 -1 45.21 26.11)" d="m0 0s-1.32-0.53-2.98 0.73c0 0-0.25-1.32 2.19-2.77l-2.25 0.04s1.22-2.97 4.89-3.82c0 0 1.15-0.21 1.15-1.81 0-1.61-0.33-9.06-8.23-7.15l-4.46-0.43s-3.7 1.21-3.88 1.27-2.94 2.03-3.21 2.25c-0.27 0.21-2.76 3.99-2.7 4.39 0.06 0.39 3.09 4.09 3.64 4.24 0.54 0.15 4.15 0.03 4.84-1 0.7-1.03 2.34-3 2.34-3s2.3 8.88 2.3 10.03-1.39 6.24-0.31 7.69c1.1 1.46 2.37 3.88 3.94 4.67 1.58 0.79 1.52 2.48 5.09 1.69 3.58-0.78 8.79-2.18 9.52-3.33 0.72-1.15 0.3-5.87 0.3-5.87l-0.69-1.26s-0.74 3.12-2.66 2.92c-1.92-0.19-2.53-3.16-2.53-3.16s-1.65 2.84-4.26 2.49c-2.6-0.34-3.96-3.54-2.04-8.81" fill="#5bba48"/><path transform="matrix(1 0 0 -1 41.54 29.96)" d="m0 0s0.53-1.2 0.74-1.62 2.91-2.29 3.09-3.61c0.18-1.31-1.35-6.19-7.54-3.4 0 0 0.33 0.66 0.35 0.84 0.01 0.19-1.47 0.22-1.47 0.22s0.03 0.53 0.35 0.71c0.31 0.18 4.07 1.77 4.48 6.86" fill="#1a1a1a"/><path transform="matrix(1 0 0 -1 27.91 36.32)" d="m0 0s2.58-0.38 4.29 1.85c0 0 0 2.13-0.22 2.74-0.21 0.61-1.92 0.98-1.92 0.98l-0.92-0.34s0.41-1.03 0.31-1.14c-0.09-0.11-2.63-1.12-2.63-1.12s-0.32-0.38-0.24-0.62c0.07-0.25 1.33-2.35 1.33-2.35" fill="#1a1a1a"/></g><path transform="matrix(1 0 0 -1 49.85 23.32)" d="m0 0s0.41 3.27-1.95 3.38c-2.37 0.1-1.63-4.82 0.84-4.79 0 0-1.93 2.53 0.14 3.03 0 0 0.52 0.09 0.97-1.62" fill="#181a24"/><path transform="matrix(1 0 0 -1 54.58 22.98)" d="m0 0s0.12 2.83 1.57 0.89c0 0 0.37 2.24-1.13 2.7 0 0-1.21-0.06-1.39-1.94v-1.47z" fill="#181a24"/><path transform="matrix(1 0 0 -1 56.91 24.69)" d="m0 0-2.36-0.08-0.05-4.27 0.96-0.12s-3.5-3.33-5.53 0.23c0 0-0.44 1.95-2.38 3.45 0 0 1.29-0.06 1.56 0.14 0.27 0.19 3.51 5.41 7.8 0.65" fill="#fdce0a"/><path transform="matrix(1 0 0 -1 54.11 24.7)" d="m0 0-0.14-3.6s-0.46-1.32-2.07-1.25c-1.61 0.08-1.74 2.05-2.29 2.77-0.54 0.73-0.44 0.55-0.44 0.55s1-0.18 1.82 0.29 1.5 1.33 3.12 1.24" fill="#e28026"/><path transform="matrix(1 0 0 -1 56.5 25.82)" d="M0 0C.66 .12 1.24-.01 1.29-.28 1.33-.54 .83-.85 .17-.97-.49-1.09-1.07-.96-1.12-.69-1.16-.43-.66-.12 0 0" fill="#f7acba"/><path transform="matrix(1 0 0 -1 46.98 27.21)" d="M0 0C.84-.05 1.51-.37 1.49-.71 1.47-1.05 .77-1.28-.07-1.24-.92-1.18-1.59-.87-1.57-.53-1.55-.18-.84 .05 0 0" fill="#f7acba"/></g></svg>
