<?xml version="1.0" encoding="UTF-8"?><svg width="89.96" height="65.08" viewBox="0 0 89.96 65.08" xmlns="http://www.w3.org/2000/svg"><defs><clipPath id="a"><path transform="matrix(1 0 0 -1 -124.14 746.11)" d="m124.14 681.02h89.96v65.09h-89.96z" clip-rule="evenodd"/></clipPath></defs><g clip-path="url(#a)"><path transform="matrix(1 0 0 -1 15.21 1.82)" d="m0 0 60.74-0.07c10.25-0.01 15.98-13.15 9.48-20.96l-29.06-34.89c-2.84-3.42-7.82-5.86-12.27-5.48-5 0.43-7.58 2.25-10.52 5.81l-28.88 34.9c-6.77 8.18-1.11 20.7 10.51 20.69" fill="#f9f05b"/><path transform="matrix(1 0 0 -1 15.21 5.88)" d="m0 0c-4.2 0-7.96-2.36-9.07-6.53-0.72-2.68-0.08-5.38 1.69-7.51l28.88-34.91c2.35-2.84 4-4.02 7.74-4.35 3.14-0.26 6.83 1.66 8.81 4.04l29.06 34.89c4.28 5.15 0.47 14.3-6.37 14.3z" fill="#565944"/><path transform="matrix(1 0 0 -1 15.2 9.71)" d="m0 0c-2.46 0-4.7-1.21-5.37-3.69-0.39-1.48-0.02-2.9 0.94-4.08l28.89-34.9c1.68-2.03 2.45-2.74 5.11-2.97 1.87-0.16 4.38 1.27 5.54 2.66l29.06 34.89c2.21 2.67 0.15 8.02-3.43 8.02z" fill="#f9f05b"/><path transform="matrix(1 0 0 -1 52.76 27.49)" d="m0 0s-7.81 12.74-9.44 12.92c-1.64 0.18-13.31-9.33-12.83-24.95 0 0 11.1-0.15 11.55-0.06 0.44 0.09-2.76 16.46-2.76 16.46l5.88 2.49s5.82-6 6.56-6.59c0.74-0.6 1.04-0.27 1.04-0.27" fill="#b01e40"/><path transform="matrix(1 0 0 -1 46.97 30.31)" d="m0 0s-2.11 0.09-2.17-1.19c-0.06-1.27 7.28-3.23 11.82-0.98 0 0-0.27 4.69-1.81 6.54 0 0-0.68 0.11-0.68-0.27 0-0.39 1.3-3.54 0.86-3.89-0.45-0.36-5.64 0.47-8.02-0.21" fill="#1a88b4"/><path transform="matrix(1 0 0 -1 43.94 34.2)" d="m0 0s9.09-3.3 18.11 0.77c0 0 0.21-5.16-1.69-5.31s-14.28 0.06-15.35 0.65-1.07 3.89-1.07 3.89" fill="#565944"/><path transform="matrix(1 0 0 -1 34.99 40.76)" d="M0 0V0C.4 0 .73-.33 .73-.73V-3.92C.73-4.32 .4-4.65 0-4.65-.4-4.65-.73-4.32-.73-3.92V-.73C-.73-.33-.4 0 0 0" fill="#f8b3b0"/><path transform="matrix(1 0 0 -1 40.02 41.06)" d="M0 0V0C.4 .04 .76-.24 .8-.64L1.16-3.82C1.2-4.21 .91-4.58 .51-4.62 .12-4.66-.25-4.37-.29-3.98L-.64-.8C-.69-.41-.4-.04 0 0" fill="#f8b3b0"/><path transform="matrix(1 0 0 -1 49.14 11.17)" d="m0 0c1.64 0 2.97-1.33 2.97-2.97s-1.33-2.97-2.97-2.97-2.97 1.33-2.97 2.97 1.33 2.97 2.97 2.97" fill="#f8b3b0"/><path transform="matrix(1 0 0 -1 59.83 28.86)" d="M0 0C.93 0 1.68-.75 1.68-1.68 1.68-2.6 .93-3.36 0-3.36-.93-3.36-1.68-2.6-1.68-1.68-1.68-.75-.93 0 0 0" fill="#f8b3b0"/></g></svg>
