<?xml version="1.0" encoding="UTF-8"?><svg width="89.96" height="64.96" viewBox="0 0 89.96 64.96" xmlns="http://www.w3.org/2000/svg"><defs><clipPath id="a"><path transform="matrix(1 0 0 -1 -126.39 748.61)" d="m126.39 683.64h89.96v64.97h-89.96z" clip-rule="evenodd"/></clipPath></defs><g clip-path="url(#a)"><path transform="matrix(1 0 0 -1 15.19 1.76)" d="m0 0 60.74-0.07c10.25-0.01 15.98-13.15 9.48-20.96l-29.06-34.89c-2.84-3.42-7.82-5.86-12.27-5.48-5 0.43-7.58 2.25-10.52 5.81l-28.88 34.9c-6.77 8.18-1.11 20.7 10.51 20.69" fill="#0a6e57"/><path transform="matrix(1 0 0 -1 15.18 5.82)" d="m0 0c-4.2 0.01-7.96-2.36-9.07-6.53-0.72-2.68-0.08-5.38 1.69-7.51l28.88-34.91c2.35-2.84 4-4.02 7.74-4.35 3.14-0.26 6.83 1.66 8.81 4.04l29.06 34.89c4.28 5.15 0.47 14.3-6.37 14.3z" fill="#f6e458"/><path transform="matrix(1 0 0 -1 15.18 9.65)" d="m0 0c-2.46 0-4.7-1.21-5.37-3.69-0.39-1.48-0.02-2.91 0.95-4.08l28.88-34.9c1.68-2.03 2.45-2.74 5.11-2.97 1.87-0.16 4.38 1.27 5.54 2.66l29.06 34.89c2.21 2.67 0.15 8.02-3.43 8.02z" fill="#0a6e57"/><path transform="matrix(1 0 0 -1 41.31 33.62)" d="m0 0h-0.47v-0.58h-0.76v0.58h-0.46v-0.58h-0.76v0.58h-0.47v-0.58h-0.81v0.58h-0.47v-0.58h-0.76v0.58h-0.46v-0.58h-0.82v0.58h-0.47v-0.44c0.18-0.46 0.29-0.91 0.47-1.37v0.76h0.82v-0.76h-0.81c0.06-0.17 0.11-0.29 0.17-0.46h0.64v-0.82h-0.33c0.07-0.12 0.13-0.29 0.2-0.47h0.13v-0.21c0.11-0.34 0.29-0.68 0.46-1.01h0.76v-0.76h-0.39c0.08-0.17 0.17-0.35 0.25-0.47h0.14v-0.29c0.18-0.33 0.38-0.64 0.58-0.99h0.47c0.24 0.41 0.47 0.78 0.7 1.16v0.12h0.03c0.08 0.12 0.16 0.3 0.24 0.47h-0.27v0.76h0.67c0.19 0.41 0.38 0.82 0.55 1.23v-0.01h0.02c0.06 0.18 0.13 0.35 0.19 0.47h-0.21v0.82h0.52c0.06 0.17 0.12 0.29 0.18 0.46h-0.7v0.76h0.76v-0.5c0.18 0.47 0.35 0.94 0.47 1.41zm-1.69-3.09h-0.76v0.82h0.76zm-2.04-0.47h0.81v-0.76h-0.81zm-1.23 1.29h0.76v-0.82h-0.76zm2.04-0.82h-0.81v0.82h0.81zm-0.81 2.04h0.81v-0.76h-0.81zm-0.47-0.76h-0.76v0.76h0.76zm-0.76-1.75h0.76v-0.76h-0.76zm2.04-3.26h-0.81v0.81h0.81zm0 1.28h-0.81v0.76h0.81zm0.47 1.98h0.76v-0.76h-0.76zm0.76 1.75h-0.76v0.76h0.76z" fill="#a97a48"/><path transform="matrix(1 0 0 -1 34.04 32.07)" d="M0 0C.02-.08 .04-.16 .06-.24 .07-.25 .07-.27 .07-.28 .09-.36 .12-.44 .14-.52L.39-.27 .74-.61H1.81L2.16-.26 2.51-.61H3.58L3.93-.26 4.29-.61H5.35L5.7-.26 6.05-.61H7.12L7.47-.27 7.65-.45C7.67-.39 7.68-.33 7.7-.28 7.7-.27 7.71-.25 7.71-.24 7.74-.14 7.76-.04 7.79 .07 7.79 .08 7.8 .1 7.8 .12 7.83 .22 7.85 .32 7.88 .41 7.88 .43 7.89 .46 7.89 .48 7.91 .57 7.94 .67 7.96 .76 7.96 .79 7.97 .81 7.98 .83 7.98 .86 7.99 .89 7.99 .91L7.47 .39 6.92 .95 7.47 1.5 8.01 .97C8.02 1.02 8.03 1.06 8.04 1.11 8.05 1.14 8.05 1.16 8.06 1.18 8.08 1.27 8.1 1.37 8.12 1.46 8.12 1.48 8.12 1.49 8.13 1.51L7.8 1.83 8.29 2.32C8.31 2.38 8.32 2.44 8.33 2.5 8.33 2.52 8.34 2.54 8.34 2.56 8.36 2.66 8.38 2.75 8.39 2.85 8.4 2.86 8.4 2.88 8.4 2.9 8.42 2.98 8.43 3.06 8.45 3.13L8.36 3.05 7.8 3.6 8.36 4.16 8.58 3.94C8.64 4.37 8.71 4.8 8.76 5.22L8.36 4.82 7.8 5.37 8.36 5.93 8.79 5.5C8.82 5.7 8.84 5.89 8.86 6.09L8.69 6.26 8.9 6.47C8.94 6.9 8.97 7.31 9.01 7.71L8.69 8.03 9.05 8.38C9.05 8.48 9.06 8.6 9.06 8.66H8.68L8.36 8.34 8.04 8.66H6.91L6.59 8.34 6.27 8.66H5.14L4.82 8.34 4.5 8.66H3.37L3.05 8.34 2.73 8.66H1.6L1.28 8.34 .96 8.66H-.17L-.49 8.34-.81 8.66H-1.29C-1.29 8.6-1.29 8.54-1.28 8.48L-.82 8.02-1.23 7.62C-1.2 7.28-1.17 6.93-1.14 6.57L-.82 6.26-1.08 6C-1.06 5.81-1.03 5.61-1.01 5.41L-.49 5.93 .06 5.37-.49 4.82-1 5.32C-.97 5.07-.94 4.82-.9 4.56L-.82 4.49-.88 4.43C-.85 4.25-.82 4.06-.8 3.87-.8 3.87-.8 3.87-.8 3.86-.79 3.86-.79 3.86-.79 3.86L-.49 4.16 .06 3.6-.49 3.05-.69 3.25C-.69 3.24-.69 3.23-.69 3.23-.69 3.21-.69 3.2-.68 3.19-.67 3.09-.65 2.99-.63 2.9-.63 2.88-.62 2.86-.62 2.85-.61 2.75-.59 2.66-.57 2.56-.57 2.54-.56 2.52-.56 2.5-.55 2.45-.54 2.4-.53 2.35L-.49 2.39 .06 1.83-.34 1.43C-.32 1.35-.3 1.26-.28 1.18-.28 1.16-.27 1.14-.27 1.11-.25 1.02-.23 .92-.2 .83-.2 .81-.19 .79-.19 .76-.17 .67-.14 .57-.12 .48-.12 .46-.11 .43-.1 .41-.08 .33-.06 .25-.04 .17L.06 .06ZM8.03 2.72 7.47 2.16 6.92 2.72 7.47 3.27ZM8.03 4.49 7.47 3.93 6.92 4.49 7.47 5.04ZM7.47 5.7 6.92 6.26 7.47 6.81 8.03 6.26ZM8.91 7.14 8.36 6.59 7.8 7.14 8.36 7.7ZM7.47 8.59 8.03 8.03 7.47 7.47 6.92 8.03ZM1.63 8.08H1.63L2.16 8.61 2.69 8.08H3.4L3.93 8.61 4.46 8.08H5.17L5.7 8.61 6.23 8.08H6.8V7.48L7.14 7.14 6.8 6.8V5.71L7.14 5.37 6.8 5.03V3.94L7.14 3.6 6.8 3.26V2.17L7.14 1.83 6.8 1.49V.4L7.14 .06 6.59-.49 6.03 .05 6.25 .26H5.15L5.37 .05 4.82-.5 4.26 .05 4.48 .26H3.38L3.6 .05 3.05-.5 2.49 .05 2.71 .26H1.61L1.83 .05 1.28-.5 .73 .06 1.09 .4V1.49L.75 1.83 1.09 2.17V3.26L.75 3.6 1.09 3.94V5.03L.75 5.37 1.09 5.71V6.8L.75 7.14 1.09 7.48V8.08ZM.39 8.59 .95 8.03 .39 7.47-.16 8.03ZM-1.05 7.14-.49 7.7 .06 7.14-.49 6.59ZM-.16 6.26 .39 6.81 .95 6.26 .39 5.7ZM-.16 4.49 .39 5.04 .95 4.49 .39 3.93ZM-.16 2.72 .39 3.27 .95 2.72 .39 2.16ZM-.16 .95 .39 1.5 .95 .95 .39 .39Z" fill="#a97a48"/><path transform="matrix(1 0 0 -1 35.85 26.7)" d="M0 0-.2-.2V-.86L.34-.33 .9-.89 .34-1.44-.2-.91V-1.57L0-1.77-.2-1.97V-2.63L.34-2.1 .9-2.66 .34-3.21-.2-2.68V-3.34L0-3.54-.2-3.74V-4.24H-.03L.35-3.86 .73-4.24H1.75L2.12-3.86 2.5-4.24H3.52L3.89-3.86 4.27-4.24H4.41V-3.74L4.21-3.54 4.41-3.34V-2.68L3.88-3.21 3.33-2.66 3.88-2.1 4.41-2.63V-1.97L4.21-1.77 4.41-1.57V-.91L3.88-1.44 3.33-.89 3.88-.33 4.41-.86V-.2L4.21 0 4.41 .2V.55H4.13L3.89 .31 3.65 .55H2.36L2.12 .31 1.88 .55H.59L.35 .31 .11 .55H-.2V.2ZM.68-1.77 1.24-1.22 1.79-1.77 1.24-2.33ZM1.57-.89 2.12-.33 2.68-.89 2.12-1.44ZM2.12-2.1 2.68-2.66 2.12-3.21 1.57-2.66ZM1.24-4.1 .68-3.54 1.24-2.99 1.79-3.54ZM3.56-3.54 3.01-4.1 2.45-3.54 3.01-2.99ZM3.56-1.77 3.01-2.33 2.45-1.77 3.01-1.22ZM3.01 .56 3.56 0 3.01-.56 2.45 0ZM1.24 .56 1.79 0 1.24-.56 .68 0Z" fill="#a97a48"/><path transform="matrix(1 0 0 -1 33.32 16.88)" d="M0 0H-.26C-.29-.12-.33-.29-.36-.47H0V-1.23H-.48C-.5-1.4-.52-1.52-.54-1.69H0V-2.51H-.6C-.61-2.62-.62-2.8-.63-2.97H0V-3.5H.47V-2.97H1.23V-3.5H1.69V-2.97H2.51V-3.5H2.97V-2.97H3.73V-3.5H4.2V-2.97H5.02V-3.5H5.48V-2.97H6.24V-3.5H6.71V-2.97H7.52V-3.5H7.99V-2.97H8.75V-3.5H9.21V-2.97H9.84C9.83-2.8 9.83-2.62 9.82-2.51H9.21V-1.69H9.75C9.74-1.52 9.72-1.4 9.7-1.23H9.21V-.47H9.57C9.56-.41 9.55-.36 9.54-.31 9.52-.2 9.5-.06 9.47 0H9.21V.82H9.26C9.11 1.28 8.92 1.68 8.75 2.04V1.28H7.99V2.04H8.74C8.73 2.1 8.71 2.1 8.7 2.13 8.62 2.27 8.55 2.39 8.47 2.51H7.99V3.17C7.93 3.2 7.94 3.23 7.92 3.25 7.72 3.46 7.5 3.62 7.28 3.79H6.71V4.11C6.71 4.12 6.65 4.13 6.63 4.14 6.5 4.2 6.36 4.25 6.24 4.3V3.79H5.48V4.49C5.31 4.51 5.13 4.53 5.02 4.54V3.79H4.2V4.54C4.08 4.53 3.91 4.51 3.73 4.49V3.79H2.97V4.29C2.92 4.28 2.91 4.28 2.88 4.26 2.75 4.22 2.62 4.16 2.51 4.11V3.79H1.93C1.75 3.67 1.56 3.51 1.4 3.35 1.34 3.29 1.28 3.23 1.23 3.17V2.51H.74C.69 2.45 .65 2.36 .6 2.28 .56 2.2 .51 2.16 .47 2.04H1.23V1.28H.47V2.04C.29 1.68 .1 1.28-.05 .82H0ZM.47-.47H1.22V-1.23H.47ZM5.02 1.28H4.2V2.04H5.02ZM6.24 1.28H5.48V2.04H6.24ZM7.52 0H6.71V.82H7.52ZM7.52-1.23H6.71V-.47H7.52ZM1.69-.47H2.51V-1.23H1.69ZM2.97-.47H3.73V-1.23H2.97ZM2.97 .82H3.73V0H2.97ZM5.02 0H4.2V.82H5.02ZM6.24 0H5.48V.82H6.24ZM5.02-1.23H4.2V-.47H5.02ZM4.2-1.69H5.01V-2.51H4.2ZM5.48-.47H6.24V-1.23H5.48ZM3.73 1.28H2.97V2.04H3.73ZM2.51 0H1.69V.82H2.51ZM.47-1.69H1.22V-2.51H.47ZM1.69-1.69H2.51V-2.51H1.69ZM2.97-1.69H3.73V-2.51H2.97ZM5.48-1.69H6.24V-2.51H5.48ZM6.71-1.69H7.52V-2.51H6.71ZM8.75-2.51H7.99V-1.69H8.75ZM8.75-1.23H7.99V-.47H8.75ZM8.75 0H7.99V.82H8.75ZM7.52 1.28H6.71V2.04H7.52ZM7.52 2.51H6.71V3.32H7.52ZM6.24 2.51H5.48V3.32H6.24ZM5.02 2.51H4.2V3.32H5.02ZM3.73 2.51H2.97V3.32H3.73ZM1.69 3.32H2.51V2.51H1.69ZM1.69 2.04H2.51V1.28H1.69ZM1.23 0H.47V.82H1.23Z" fill="#a97a48"/><path transform="matrix(1 0 0 -1 -126.39 748.61)" d="m163.03 726.13h0.47v1.16h-0.47z" fill="#a97a48"/><path transform="matrix(1 0 0 -1 -126.39 748.61)" d="m160.76 726.13h0.47v1.16h-0.47z" fill="#a97a48"/><path transform="matrix(1 0 0 -1 -126.39 748.61)" d="m167.53 726.13h0.46v1.16h-0.46z" fill="#a97a48"/><path transform="matrix(1 0 0 -1 -126.39 748.61)" d="m165.25 726.13h0.47v1.16h-0.47z" fill="#a97a48"/><path transform="matrix(1 0 0 -1 31.74 21.07)" d="m0 0v-0.02c0-0.42 0.01-0.86 0.03-1.39l0.01-0.29c0-0.06 0-0.11 0.01-0.17v-0.02l0.02-0.45c0.06-1.28 0.19-2.72 0.41-4.28 0.01-0.1 0.03-0.2 0.04-0.3 0.01-0.01 0.01-0.02 0.01-0.04 0.01-0.09 0.03-0.19 0.04-0.28 0-0.02 0.01-0.04 0.01-0.06 0.02-0.09 0.03-0.18 0.04-0.27 0.01-0.02 0.01-0.05 0.02-0.07 0.01-0.09 0.03-0.18 0.04-0.27 0.01-0.02 0.01-0.05 0.01-0.08 0.02-0.08 0.04-0.17 0.05-0.26 0.01-0.03 0.01-0.06 0.02-0.08 0.01-0.09 0.03-0.18 0.05-0.27 0-0.03 0.01-0.05 0.01-0.08 0.02-0.09 0.04-0.18 0.05-0.27 0.01-0.03 0.02-0.05 0.02-0.08l0.03-0.15c0.01-0.04 0.02-0.08 0.02-0.12 0.01-0.03 0.02-0.06 0.02-0.09l0.06-0.27c0.01-0.03 0.01-0.06 0.02-0.09 0.02-0.09 0.04-0.17 0.06-0.26 0-0.03 0.01-0.06 0.02-0.1 0.02-0.09 0.04-0.17 0.06-0.26 0.01-0.03 0.02-0.07 0.02-0.09 0.02-0.09 0.05-0.19 0.07-0.28 0-0.03 0.01-0.05 0.02-0.08 0.02-0.1 0.04-0.19 0.07-0.28 0.01-0.03 0.01-0.05 0.02-0.08 0.02-0.1 0.05-0.19 0.07-0.29 0.01-0.02 0.02-0.04 0.02-0.06 0.03-0.11 0.05-0.21 0.08-0.31 0.01-0.02 0.01-0.03 0.02-0.05 0.03-0.1 0.06-0.21 0.09-0.32l0.09-0.33h0.01c0.85-2.86 2.09-5.87 3.95-8.67v-5.97h0.94v5.97c1.86 2.8 3.11 5.81 3.96 8.67l0.09 0.33h0.01l0.09 0.33c0 0.01 0 0.02 0.01 0.04 0.03 0.1 0.05 0.2 0.08 0.31 0.01 0.02 0.01 0.04 0.02 0.06 0.02 0.1 0.05 0.19 0.07 0.29 0.01 0.03 0.02 0.05 0.02 0.08 0.03 0.09 0.05 0.18 0.07 0.28 0.01 0.03 0.02 0.05 0.02 0.08 0.03 0.09 0.05 0.19 0.07 0.28 0.01 0.03 0.01 0.06 0.02 0.08 0.02 0.09 0.04 0.19 0.06 0.28 0.01 0.03 0.02 0.06 0.02 0.09 0.02 0.09 0.04 0.17 0.06 0.27 0.01 0.02 0.02 0.05 0.02 0.08 0.02 0.09 0.04 0.18 0.06 0.28 0 0.02 0.01 0.05 0.02 0.08 0 0.04 0.01 0.08 0.02 0.12l0.03 0.15c0.01 0.03 0.01 0.05 0.02 0.08 0.02 0.09 0.03 0.18 0.05 0.27 0 0.03 0.01 0.05 0.01 0.08l0.06 0.27c0 0.03 0.01 0.05 0.01 0.08 0.01 0.09 0.03 0.18 0.05 0.27 0 0.02 0.01 0.05 0.01 0.07 0.02 0.09 0.03 0.18 0.04 0.27 0.01 0.02 0.01 0.05 0.02 0.07 0.01 0.09 0.03 0.18 0.04 0.28 0 0.01 0.01 0.03 0.01 0.04 0.01 0.1 0.03 0.2 0.04 0.3 0.01 0.01 0.01 0.02 0.01 0.03 0.01 0.1 0.03 0.2 0.04 0.3 0.23 1.56 0.35 3 0.41 4.28h0.01l0.01 0.46v0.01c0.01 0.06 0.01 0.11 0.01 0.17l0.02 0.29h-0.01c0.02 0.53 0.03 0.98 0.03 1.4v0.24 0.46c-0.02 1.55-0.18 2.87-0.46 3.98-0.23 0.89-0.53 1.65-0.91 2.29-0.28 0.48-0.6 0.89-0.95 1.24-0.54 0.52-1.15 0.9-1.8 1.13-0.65 0.24-1.35 0.35-2.06 0.35-0.84 0-1.66-0.15-2.42-0.49-0.56-0.26-1.09-0.63-1.55-1.11-0.35-0.36-0.66-0.79-0.93-1.28-0.41-0.75-0.73-1.64-0.95-2.71-0.2-0.98-0.31-2.11-0.33-3.4v-0.46-0.01-0.22m1.53 5c0.14 0.46 0.31 0.87 0.5 1.23 0.01 0.01 0.01 0.02 0.01 0.02 0.05 0.08 0.09 0.16 0.13 0.24 0.05 0.08 0.1 0.15 0.15 0.23 0.16 0.24 0.32 0.45 0.5 0.65 0.05 0.05 0.1 0.11 0.16 0.16 0.17 0.17 0.34 0.31 0.53 0.44 0.18 0.13 0.37 0.24 0.56 0.33 0.12 0.06 0.25 0.11 0.37 0.16 0.03 0.01 0.06 0.02 0.1 0.03 0.25 0.08 0.51 0.15 0.78 0.19 0.15 0.02 0.31 0.04 0.47 0.05 0.13 0.01 0.26 0.01 0.39 0.01s0.26 0 0.39-0.01c0.16-0.01 0.32-0.03 0.47-0.05 0.27-0.04 0.53-0.11 0.79-0.19 0.13-0.05 0.26-0.1 0.38-0.15 0.03-0.02 0.06-0.03 0.08-0.04 0.2-0.09 0.38-0.2 0.56-0.33 0.22-0.15 0.43-0.33 0.63-0.53 0.02-0.03 0.04-0.05 0.06-0.07 0.18-0.2 0.35-0.41 0.5-0.65 0.08-0.12 0.16-0.24 0.23-0.37 0.02-0.03 0.03-0.06 0.05-0.1 0 0 0.01-0.01 0.01-0.02 0.19-0.36 0.36-0.77 0.5-1.23 0.08-0.25 0.15-0.51 0.22-0.78 0.02-0.1 0.04-0.21 0.07-0.31 0.01-0.06 0.02-0.11 0.03-0.16 0.04-0.25 0.09-0.51 0.12-0.79 0.02-0.15 0.04-0.3 0.06-0.46 0.02-0.25 0.04-0.52 0.06-0.79 0.01-0.15 0.02-0.31 0.02-0.46 0.01-0.19 0.02-0.37 0.02-0.56h-10.5c0.01 0.19 0.01 0.38 0.02 0.56 0 0.15 0.01 0.31 0.02 0.46 0.02 0.27 0.04 0.54 0.06 0.79 0.02 0.16 0.04 0.31 0.06 0.46 0.04 0.28 0.08 0.54 0.13 0.79 0.03 0.16 0.06 0.32 0.09 0.47 0.02 0.07 0.04 0.15 0.06 0.22 0.05 0.19 0.1 0.38 0.16 0.56m7.59-19.09-0.09-0.27c-0.06-0.15-0.11-0.31-0.17-0.46-0.1-0.26-0.21-0.53-0.31-0.79-0.07-0.15-0.13-0.31-0.2-0.46 0-0.01-0.01-0.02-0.01-0.03-0.18-0.41-0.36-0.82-0.56-1.22-0.13-0.27-0.26-0.53-0.39-0.79-0.09-0.16-0.17-0.31-0.25-0.47-0.02-0.03-0.03-0.06-0.05-0.09-0.21-0.39-0.44-0.78-0.67-1.16-0.08-0.13-0.16-0.25-0.24-0.38-0.08 0.13-0.16 0.25-0.23 0.38-0.2 0.33-0.4 0.66-0.58 0.99-0.05 0.09-0.1 0.17-0.15 0.26-0.08 0.16-0.16 0.31-0.24 0.47-0.14 0.26-0.27 0.52-0.4 0.78-0.16 0.34-0.31 0.68-0.46 1.01-0.04 0.09-0.07 0.17-0.11 0.25-0.06 0.15-0.13 0.31-0.19 0.46-0.11 0.26-0.22 0.53-0.31 0.79-0.06 0.15-0.12 0.31-0.18 0.46v0.01c-0.16 0.45-0.32 0.91-0.46 1.37-0.05 0.14-0.1 0.26-0.14 0.44h6.9c-0.01-0.06-0.02-0.1-0.04-0.14-0.14-0.47-0.3-0.94-0.47-1.41m-6.85 3.21c-0.01 0.02-0.01 0.03-0.02 0.05l-0.06 0.24c0 0.03-0.01 0.05-0.01 0.07-0.03 0.09-0.05 0.19-0.07 0.29-0.01 0.02-0.01 0.04-0.02 0.06-0.02 0.1-0.04 0.19-0.06 0.28-0.01 0.03-0.01 0.05-0.02 0.07-0.02 0.09-0.04 0.17-0.05 0.25-0.01 0.01-0.01 0.02-0.01 0.03-0.01 0.02-0.01 0.05-0.02 0.08-0.02 0.08-0.04 0.18-0.05 0.27-0.01 0.02-0.02 0.05-0.02 0.07l-0.06 0.27c0 0.03-0.01 0.05-0.01 0.08-0.01 0.04-0.02 0.08-0.02 0.12l-0.03 0.15c-0.01 0.02-0.01 0.04-0.01 0.06-0.02 0.1-0.04 0.19-0.06 0.29 0 0.01 0 0.03-0.01 0.05-0.01 0.09-0.03 0.19-0.05 0.29 0 0.01 0 0.02-0.01 0.04v0.02c-0.01 0.09-0.03 0.19-0.05 0.28v0.02c-0.02 0.11-0.03 0.21-0.05 0.31v0.01c-0.03 0.19-0.06 0.38-0.08 0.56-0.01 0.05-0.02 0.09-0.02 0.14-0.04 0.25-0.07 0.51-0.11 0.76 0 0.03 0 0.05-0.01 0.08-0.02 0.2-0.04 0.4-0.06 0.59-0.02 0.2-0.04 0.39-0.06 0.57-0.04 0.36-0.07 0.72-0.09 1.06-0.02 0.29-0.04 0.57-0.06 0.85 0 0.06 0 0.12-0.01 0.18h10.36c-0.01-0.06-0.01-0.18-0.02-0.28-0.01-0.22-0.02-0.44-0.04-0.67-0.03-0.4-0.06-0.82-0.11-1.24-0.01-0.13-0.02-0.25-0.04-0.38-0.02-0.2-0.04-0.39-0.06-0.59-0.01-0.1-0.03-0.19-0.04-0.28-0.05-0.42-0.11-0.84-0.18-1.28 0-0.02 0-0.05-0.01-0.07-0.01-0.11-0.03-0.21-0.05-0.32v-0.02c-0.02-0.1-0.04-0.2-0.05-0.3-0.01-0.02-0.01-0.03-0.01-0.04 0-0.02-0.01-0.04-0.01-0.06-0.01-0.07-0.03-0.15-0.04-0.23 0-0.02-0.01-0.04-0.01-0.05-0.02-0.1-0.04-0.19-0.05-0.29-0.01-0.02-0.01-0.04-0.02-0.06-0.01-0.06-0.02-0.12-0.03-0.17-0.01-0.04-0.01-0.07-0.02-0.1 0-0.03-0.01-0.05-0.01-0.08l-0.06-0.27c0-0.02-0.01-0.05-0.01-0.07-0.02-0.09-0.04-0.19-0.06-0.28 0 0 0-0.01-0.01-0.02 0-0.02 0-0.03-0.01-0.05-0.02-0.09-0.04-0.18-0.06-0.28 0-0.02-0.01-0.04-0.01-0.07-0.02-0.04-0.03-0.09-0.04-0.14 0-0.02-0.01-0.04-0.01-0.06-0.01-0.02-0.01-0.05-0.02-0.08 0-0.02-0.01-0.04-0.01-0.06-0.03-0.1-0.05-0.2-0.07-0.29-0.01-0.02-0.01-0.04-0.02-0.07-0.02-0.09-0.05-0.19-0.07-0.29-0.01-0.02-0.01-0.04-0.02-0.05-0.02-0.11-0.05-0.21-0.08-0.31 0-0.01 0-0.02-0.01-0.04-0.01-0.05-0.03-0.11-0.04-0.17-0.01-0.05-0.03-0.1-0.04-0.15l-0.01-0.01h-7.44s0 0.01-0.01 0.01c0 0.03-0.01 0.06-0.02 0.08l-0.06 0.24c-0.01 0.02-0.01 0.03-0.01 0.04-0.02 0.08-0.04 0.16-0.07 0.24 0 0.02-0.01 0.04-0.01 0.07-0.01 0.02-0.01 0.03-0.01 0.05m7.56 9.47h-8.87c-0.01 0.41-0.02 0.82-0.02 1.17h10.49c-0.01-0.35-0.02-0.76-0.03-1.17z" fill="#e3a261"/><path transform="matrix(1 0 0 -1 -126.39 748.61)" d="m161.52 717.67h0.52v4.78h-0.52z" fill="#d24040"/><path transform="matrix(1 0 0 -1 -126.39 748.61)" d="m166.65 717.67h0.58v4.78h-0.58z" fill="#d24040"/><path transform="matrix(1 0 0 -1 35.12 24.59)" d="M0 0V-1.57H1.92V.59H0Z" fill="#d24040"/><path transform="matrix(1 0 0 -1 40.27 30.93)" d="M0 0H-5.15V-.88H.57V0Z" fill="#a03732"/><path transform="matrix(1 0 0 -1 -126.39 748.61)" d="m163.44 722.45h3.79v2.16h-3.79z" fill="#a03732"/><path transform="matrix(1 0 0 -1 56.24 33.62)" d="m0 0h-0.47v-0.58h-0.76v0.58h-0.46v-0.58h-0.76v0.58h-0.47v-0.58h-0.81v0.58h-0.47v-0.58h-0.76v0.58h-0.46v-0.58h-0.82v0.58h-0.47v-0.44c0.18-0.46 0.29-0.91 0.47-1.37v0.76h0.82v-0.76h-0.81c0.06-0.17 0.11-0.29 0.17-0.46h0.64v-0.82h-0.33c0.07-0.12 0.13-0.29 0.2-0.47h0.13v-0.21c0.11-0.34 0.29-0.68 0.46-1.01h0.76v-0.76h-0.39c0.08-0.17 0.17-0.35 0.25-0.47h0.14v-0.29c0.18-0.33 0.38-0.64 0.58-0.99h0.47c0.24 0.41 0.47 0.78 0.7 1.16v0.12h0.03c0.08 0.12 0.16 0.3 0.24 0.47h-0.27v0.76h0.67c0.19 0.41 0.38 0.82 0.55 1.23v-0.01h0.01c0.07 0.18 0.14 0.35 0.2 0.47h-0.21v0.82h0.52c0.06 0.17 0.12 0.29 0.18 0.46h-0.7v0.76h0.76v-0.5c0.18 0.47 0.35 0.94 0.47 1.41zm-1.69-3.09h-0.76v0.82h0.76zm-2.04-0.47h0.81v-0.76h-0.81zm-1.23 1.29h0.76v-0.82h-0.76zm2.04-0.82h-0.81v0.82h0.81zm-0.81 2.04h0.81v-0.76h-0.81zm-0.47-0.76h-0.76v0.76h0.76zm-0.76-1.75h0.76v-0.76h-0.76zm2.04-3.26h-0.81v0.81h0.81zm0 1.28h-0.81v0.76h0.81zm0.47 1.98h0.76v-0.76h-0.76zm0.76 1.75h-0.76v0.76h0.76z" fill="#a97a48"/><path transform="matrix(1 0 0 -1 57.26 29.75)" d="m0 0c0.01 0.06 0.02 0.12 0.04 0.17 0 0.03 0 0.05 0.01 0.07 0.02 0.09 0.03 0.19 0.05 0.28 0 0.02 0.01 0.04 0.01 0.05 0.01 0.08 0.03 0.16 0.04 0.24l-0.08-0.09-0.56 0.56 0.56 0.55 0.21-0.22c0.07 0.44 0.13 0.87 0.18 1.28l-0.39-0.4-0.56 0.56 0.56 0.55 0.43-0.43c0.02 0.2 0.04 0.4 0.06 0.59l-0.17 0.18 0.21 0.2c0.05 0.43 0.08 0.85 0.11 1.25l-0.32 0.32 0.36 0.34c0.01 0.1 0.02 0.23 0.02 0.28h-0.39l-0.31-0.31-0.33 0.31h-1.13l-0.32-0.31-0.32 0.31h-1.13l-0.32-0.31-0.32 0.31h-1.13l-0.32-0.31-0.32 0.31h-1.13l-0.32-0.31-0.32 0.31h-1.13l-0.32-0.31-0.32 0.31h-0.48c0-0.05 0.01-0.11 0.01-0.17l0.46-0.46-0.4-0.4c0.02-0.34 0.05-0.69 0.09-1.05l0.31-0.32-0.25-0.25c0.02-0.2 0.04-0.39 0.07-0.59l0.51 0.51 0.56-0.55-0.56-0.56-0.5 0.51c0.03-0.25 0.06-0.5 0.1-0.76l0.07-0.08-0.06-0.05 0.09-0.57v-0.01l0.3 0.3 0.56-0.55-0.56-0.56-0.2 0.2s0-0.01 0.01-0.02v-0.04c0.02-0.09 0.04-0.19 0.05-0.29 0.01-0.01 0.01-0.03 0.01-0.05 0.02-0.09 0.04-0.19 0.05-0.28 0.01-0.02 0.01-0.04 0.02-0.07 0.01-0.04 0.02-0.09 0.03-0.14l0.03 0.03 0.56-0.55-0.4-0.4c0.01-0.09 0.03-0.17 0.05-0.25 0.01-0.03 0.01-0.05 0.02-0.07 0.02-0.1 0.04-0.19 0.06-0.28 0.01-0.03 0.01-0.05 0.02-0.07 0.02-0.1 0.04-0.19 0.07-0.29 0-0.02 0.01-0.04 0.01-0.06 0.02-0.08 0.04-0.17 0.06-0.25l0.11-0.1-0.06-0.06 0.06-0.24c0-0.02 0-0.03 0.01-0.04 0.02-0.08 0.04-0.17 0.06-0.25l0.26 0.26 0.35-0.35h1.07l0.35 0.35 0.35-0.35h1.07l0.35 0.35 0.35-0.35h1.07l0.35 0.35 0.35-0.35h1.07l0.35 0.35 0.18-0.18c0.01 0.06 0.03 0.11 0.04 0.17 0.01 0.01 0.01 0.02 0.02 0.04 0.02 0.1 0.05 0.2 0.07 0.3 0.01 0.02 0.01 0.04 0.02 0.06 0.02 0.09 0.05 0.19 0.07 0.29 0.01 0.02 0.01 0.04 0.02 0.06 0.02 0.1 0.04 0.19 0.06 0.29 0.01 0.02 0.01 0.04 0.02 0.07 0.01 0.02 0.01 0.05 0.02 0.08l-0.52-0.52-0.56 0.55 0.56 0.56 0.53-0.53c0.01 0.04 0.02 0.09 0.03 0.14 0.01 0.02 0.02 0.04 0.02 0.07 0.02 0.09 0.04 0.18 0.06 0.28 0.01 0.01 0.01 0.03 0.01 0.04l-0.32 0.33zm-0.27 0.39-0.55-0.55-0.56 0.55 0.56 0.56zm0 1.77-0.55-0.55-0.56 0.55 0.56 0.56zm-0.55 1.22-0.56 0.56 0.56 0.55 0.55-0.55zm1.44 1.44-0.55-0.56-0.56 0.56 0.56 0.56zm-1.44 1.44 0.55-0.55-0.55-0.56-0.56 0.56zm-7.08 0 0.55-0.55-0.55-0.56-0.56 0.56zm-1.44-1.44 0.55 0.56 0.56-0.56-0.56-0.56zm0.88-0.88 0.56 0.55 0.55-0.55-0.55-0.56zm0-1.78 0.56 0.56 0.55-0.56-0.55-0.55zm0-1.77 0.56 0.56 0.55-0.56-0.55-0.55zm0-1.77 0.56 0.56 0.55-0.56-0.55-0.55zm6.97 0.18v-0.72l0.34-0.34-0.56-0.56-0.55 0.55 0.22 0.21h-1.1l0.22-0.21-0.56-0.55-0.55 0.54 0.22 0.22h-1.1l0.22-0.21-0.56-0.55-0.55 0.54 0.22 0.22h-1.1l0.22-0.21-0.56-0.55-0.54 0.55 0.35 0.35v1.09l-0.34 0.34 0.34 0.34v1.09l-0.34 0.34 0.34 0.34v1.09l-0.34 0.34 0.34 0.34v1.09l-0.34 0.34 0.34 0.34v0.59h0.55l0.53 0.53 0.53-0.53h0.71l0.53 0.53 0.53-0.53h0.71l0.53 0.53 0.53-0.53h0.57v-0.59l0.34-0.34-0.34-0.34v-1.09l0.34-0.34-0.34-0.34v-1.09l0.34-0.34-0.34-0.34v-1.09l0.34-0.34-0.34-0.34z" fill="#a97a48"/><path transform="matrix(1 0 0 -1 54.67 26.39)" d="M0 0-.24 .24H-1.53L-1.77 0-2.01 .24H-3.3L-3.54 0-3.78 .24H-4.09V-.11L-3.89-.31-4.09-.51V-1.17L-3.55-.64-2.99-1.19-3.55-1.75-4.09-1.22V-1.88L-3.89-2.08-4.09-2.28V-2.94L-3.55-2.41-2.99-2.96-3.55-3.52-4.09-2.99V-3.65L-3.89-3.85-4.09-4.05V-4.54H-3.92L-3.54-4.17-3.17-4.54H-2.15L-1.77-4.17-1.4-4.54H-.38L0-4.17 .38-4.54H.51V-4.05L.31-3.85 .51-3.65V-2.99L-.01-3.52-.56-2.96-.01-2.41 .51-2.94V-2.28L.31-2.08 .51-1.88V-1.22L-.01-1.75-.56-1.19-.01-.64 .51-1.17V-.51L.31-.31 .51-.11V.24H.24ZM-3.21-.31-2.66 .25-2.1-.31-2.66-.86ZM-1.77-.64-1.22-1.19-1.77-1.75-2.33-1.19ZM-3.21-2.08-2.66-1.52-2.1-2.08-2.66-2.63ZM-1.77-2.41-1.22-2.96-1.77-3.52-2.33-2.96ZM-2.66-4.4-3.21-3.85-2.66-3.29-2.1-3.85ZM-.33-3.85-.89-4.4-1.44-3.85-.89-3.29ZM-.33-2.08-.89-2.63-1.44-2.08-.89-1.52ZM-.89-.86-1.44-.31-.89 .25-.33-.31Z" fill="#a97a48"/><path transform="matrix(1 0 0 -1 55.53 13.09)" d="M0 0H-.57V.32C-.57 .33-.62 .34-.65 .35-.78 .41-.92 .46-1.04 .51V0H-1.8V.69C-1.97 .72-2.15 .73-2.27 .74V0H-3.08V.74C-3.2 .73-3.37 .72-3.55 .69V0H-4.31V.5C-4.36 .49-4.37 .48-4.4 .47-4.53 .43-4.66 .37-4.77 .32V0H-5.35C-5.53-.12-5.72-.28-5.88-.44-5.94-.5-6-.56-6.05-.62V-1.28H-6.54C-6.58-1.34-6.63-1.44-6.68-1.51-6.72-1.59-6.77-1.63-6.81-1.75H-6.05V-2.51H-6.81V-1.75C-6.99-2.11-7.18-2.51-7.33-2.97H-7.28V-3.79H-7.54C-7.58-3.91-7.61-4.08-7.64-4.26H-7.28V-5.02H-7.76C-7.78-5.19-7.8-5.31-7.82-5.48H-7.28V-6.3H-7.88C-7.89-6.42-7.9-6.59-7.91-6.76H-7.28V-7.29H-6.81V-6.76H-6.05V-7.29H-5.59V-6.76H-4.77V-7.29H-4.31V-6.76H-3.55V-7.29H-3.08V-6.76H-2.27V-7.29H-1.8V-6.76H-1.04V-7.29H-.57V-6.76H.24V-7.29H.71V-6.76H1.47V-7.29H1.94V-6.76H2.56C2.55-6.59 2.55-6.42 2.54-6.3H1.94V-5.48H2.47C2.46-5.31 2.44-5.19 2.42-5.02H1.94V-4.26H2.29C2.28-4.2 2.27-4.15 2.26-4.1 2.24-4 2.22-3.85 2.19-3.79H1.94V-2.97H1.98C1.83-2.51 1.64-2.11 1.47-1.75V-2.51H.71V-1.75H1.47C1.45-1.69 1.43-1.69 1.42-1.66 1.34-1.52 1.27-1.4 1.19-1.28H.71V-.62C.65-.59 .66-.56 .64-.54 .44-.34 .22-.17 0 0M-1.04-1.28H-1.8V-.47H-1.04ZM.24-3.79H-.57V-2.97H.24ZM.24-5.02H-.57V-4.26H.24ZM-2.27-2.51H-3.08V-1.75H-2.27ZM-1.04-3.79H-1.8V-2.97H-1.04ZM-2.27-5.02H-3.08V-4.26H-2.27ZM-4.31-2.97H-3.55V-3.79H-4.31ZM-2.27-3.79H-3.08V-2.97H-2.27ZM-3.55-2.51H-4.31V-1.75H-3.55ZM-4.77-3.79H-5.59V-2.97H-4.77ZM-5.59-4.26H-4.77V-5.02H-5.59ZM-4.31-4.26H-3.55V-5.02H-4.31ZM-3.08-5.48H-2.27V-6.3H-3.08ZM-1.8-4.26H-1.04V-5.02H-1.8ZM-1.04-2.51H-1.8V-1.75H-1.04ZM-2.27-1.28H-3.08V-.47H-2.27ZM-3.55-1.28H-4.31V-.47H-3.55ZM-5.59-.47H-4.77V-1.28H-5.59ZM-5.59-1.75H-4.77V-2.51H-5.59ZM-6.81-2.97H-6.06V-3.79H-6.81ZM-6.81-4.26H-6.06V-5.02H-6.81ZM-6.81-5.48H-6.06V-6.3H-6.81ZM-5.59-5.48H-4.77V-6.3H-5.59ZM-4.31-5.48H-3.55V-6.3H-4.31ZM-1.8-5.48H-1.04V-6.3H-1.8ZM-.57-5.48H.24V-6.3H-.57ZM1.47-6.3H.71V-5.48H1.47ZM1.47-5.02H.71V-4.26H1.47ZM1.47-3.79H.71V-2.97H1.47ZM.24-2.51H-.57V-1.75H.24ZM.24-1.28H-.57V-.47H.24Z" fill="#a97a48"/><path transform="matrix(1 0 0 -1 -126.39 748.61)" d="m175.69 726.13h0.47v1.16h-0.47z" fill="#a97a48"/><path transform="matrix(1 0 0 -1 -126.39 748.61)" d="m182.46 726.13h0.46v1.16h-0.46z" fill="#a97a48"/><path transform="matrix(1 0 0 -1 -126.39 748.61)" d="m177.97 726.13h0.46v1.16h-0.46z" fill="#a97a48"/><path transform="matrix(1 0 0 -1 -126.39 748.61)" d="m180.18 726.13h0.47v1.16h-0.47z" fill="#a97a48"/><path transform="matrix(1 0 0 -1 54.91 11.74)" d="m0 0c-0.65 0.24-1.35 0.34-2.06 0.34-0.84 0-1.66-0.14-2.42-0.49-0.56-0.25-1.09-0.62-1.55-1.1-0.35-0.36-0.66-0.79-0.93-1.29-0.41-0.74-0.73-1.63-0.95-2.7-0.2-0.98-0.31-2.11-0.33-3.4v-0.47-0.22-0.02c0-0.43 0.01-0.86 0.03-1.39l0.01-0.29v-0.17c0.01 0 0.01-0.01 0.01-0.02l0.01-0.45h0.01c0.06-1.28 0.19-2.72 0.41-4.28v0c0.01-0.1 0.03-0.2 0.04-0.3 0.01-0.02 0.01-0.03 0.01-0.04 0.01-0.09 0.03-0.19 0.04-0.28 0-0.02 0.01-0.04 0.01-0.06 0.02-0.09 0.03-0.18 0.04-0.28 0.01-0.02 0.01-0.04 0.02-0.06 0.01-0.09 0.03-0.18 0.04-0.27 0.01-0.03 0.01-0.05 0.02-0.08 0.01-0.09 0.03-0.17 0.04-0.26 0.01-0.03 0.01-0.06 0.02-0.08 0.01-0.09 0.03-0.18 0.05-0.27 0-0.03 0.01-0.06 0.01-0.08 0.02-0.09 0.04-0.18 0.05-0.27 0.01-0.03 0.01-0.06 0.02-0.08l0.03-0.15c0.01-0.04 0.02-0.08 0.03-0.13 0-0.02 0.01-0.05 0.01-0.08l0.06-0.27c0.01-0.03 0.01-0.06 0.02-0.09l0.06-0.27c0.01-0.03 0.01-0.06 0.02-0.09l0.06-0.27c0.01-0.03 0.02-0.06 0.02-0.09 0.02-0.09 0.05-0.18 0.07-0.27 0.01-0.03 0.01-0.06 0.02-0.09 0.02-0.09 0.04-0.18 0.07-0.28 0-0.02 0.01-0.05 0.02-0.07 0.02-0.1 0.05-0.2 0.07-0.29 0.01-0.02 0.01-0.05 0.02-0.07 0.03-0.1 0.06-0.2 0.08-0.3 0.01-0.02 0.01-0.03 0.02-0.05 0.03-0.11 0.06-0.21 0.09-0.32l0.09-0.34c0.86-2.85 2.11-5.86 3.96-8.66v-5.98h0.94v5.98c1.85 2.8 3.1 5.81 3.96 8.66l0.09 0.34c0.04 0.11 0.07 0.22 0.1 0.32 0 0.02 0 0.03 0.01 0.05 0.03 0.1 0.05 0.2 0.08 0.3 0.01 0.03 0.01 0.05 0.02 0.07 0.02 0.09 0.05 0.19 0.07 0.29 0.01 0.02 0.02 0.05 0.02 0.07 0.03 0.1 0.05 0.19 0.07 0.29 0.01 0.02 0.02 0.05 0.02 0.08 0.03 0.09 0.05 0.18 0.07 0.27 0.01 0.03 0.01 0.06 0.02 0.09l0.06 0.27c0.01 0.03 0.02 0.06 0.02 0.09l0.06 0.27c0.01 0.03 0.02 0.06 0.02 0.09l0.06 0.27c0.01 0.03 0.01 0.06 0.02 0.08 0.01 0.05 0.01 0.09 0.02 0.13l0.03 0.15c0.01 0.02 0.01 0.05 0.02 0.08 0.02 0.09 0.03 0.18 0.05 0.27 0.01 0.02 0.01 0.05 0.01 0.08l0.06 0.27c0 0.02 0 0.05 0.01 0.07 0.02 0.09 0.03 0.18 0.05 0.27 0 0.03 0.01 0.05 0.01 0.08 0.02 0.09 0.03 0.18 0.04 0.27 0.01 0.02 0.01 0.04 0.02 0.06 0.01 0.1 0.02 0.19 0.04 0.28 0 0.02 0.01 0.04 0.01 0.05 0.01 0.1 0.03 0.2 0.04 0.29 0 0.01 0.01 0.02 0.01 0.03 0.01 0.11 0.03 0.21 0.04 0.31v-0.01c0.23 1.57 0.35 3.01 0.41 4.29h0.01l0.02 0.46v0.01 0.17l0.01 0.29c0.02 0.53 0.03 0.98 0.03 1.4v0.23 0.47c-0.02 1.55-0.18 2.86-0.46 3.97-0.23 0.9-0.53 1.66-0.91 2.3-0.28 0.48-0.6 0.89-0.95 1.24-0.54 0.52-1.15 0.89-1.8 1.13m1.24-1.9c0.02-0.02 0.04-0.04 0.06-0.07 0.18-0.19 0.35-0.4 0.5-0.64 0.08-0.12 0.16-0.24 0.23-0.38 0.01-0.03 0.03-0.06 0.05-0.09 0-0.01 0-0.01 0.01-0.02 0.19-0.36 0.36-0.77 0.5-1.23 0.08-0.25 0.15-0.51 0.22-0.79 0.02-0.1 0.04-0.2 0.07-0.31l0.03-0.15c0.04-0.25 0.09-0.51 0.12-0.79 0.02-0.15 0.04-0.31 0.06-0.46 0.02-0.26 0.04-0.52 0.06-0.79 0.01-0.15 0.02-0.31 0.02-0.47 0.01-0.18 0.02-0.36 0.02-0.55h-10.5c0.01 0.19 0.01 0.37 0.02 0.55 0 0.16 0.01 0.32 0.02 0.47 0.02 0.27 0.04 0.53 0.06 0.79 0.02 0.15 0.04 0.31 0.06 0.46 0.03 0.28 0.08 0.54 0.12 0.79 0.04 0.16 0.07 0.31 0.1 0.46 0.02 0.08 0.04 0.15 0.06 0.23 0.05 0.19 0.1 0.38 0.16 0.56 0.14 0.46 0.31 0.87 0.5 1.23 0.01 0.01 0.01 0.01 0.01 0.02 0.04 0.08 0.09 0.16 0.13 0.23l0.15 0.24c0.15 0.24 0.32 0.45 0.5 0.64 0.05 0.06 0.1 0.12 0.16 0.17 0.17 0.17 0.34 0.31 0.53 0.44 0.18 0.12 0.36 0.23 0.56 0.33 0.12 0.06 0.24 0.11 0.37 0.15 0.03 0.02 0.06 0.03 0.1 0.04 0.25 0.08 0.51 0.14 0.78 0.18 0.15 0.03 0.31 0.05 0.47 0.06 0.13 0 0.26 0.01 0.39 0.01s0.26 0 0.39-0.01c0.16-0.01 0.32-0.03 0.47-0.05 0.27-0.05 0.53-0.11 0.79-0.19 0.13-0.05 0.26-0.1 0.38-0.16 0.03-0.01 0.06-0.02 0.08-0.03 0.2-0.1 0.38-0.21 0.56-0.33 0.22-0.15 0.43-0.33 0.63-0.54m1.08-16.28-0.06-0.27c0-0.02-0.01-0.05-0.01-0.08l-0.06-0.27c0-0.01-0.01-0.02-0.01-0.02 0-0.02 0-0.04-0.01-0.05-0.02-0.09-0.04-0.19-0.06-0.28 0-0.02-0.01-0.05-0.01-0.07-0.02-0.05-0.03-0.09-0.04-0.14 0-0.02-0.01-0.04-0.01-0.06-0.01-0.03-0.01-0.05-0.02-0.08-0.01-0.02-0.01-0.05-0.01-0.07-0.03-0.09-0.05-0.19-0.07-0.29-0.01-0.02-0.01-0.04-0.02-0.06-0.02-0.1-0.05-0.19-0.07-0.29-0.01-0.02-0.01-0.04-0.02-0.06-0.02-0.1-0.05-0.2-0.08-0.3 0-0.01 0-0.03-0.01-0.04-0.01-0.06-0.03-0.11-0.04-0.17-0.02-0.05-0.03-0.1-0.04-0.15 0-0.01-0.01-0.01-0.01-0.02v0.01h-7.44v-0.01c0 0.01 0 0.02-0.01 0.02 0 0.03-0.01 0.05-0.02 0.08l-0.06 0.24c-0.01 0.01-0.01 0.03-0.01 0.04-0.02 0.08-0.04 0.16-0.07 0.24 0 0.02-0.01 0.04-0.01 0.06-0.01 0.02-0.01 0.04-0.01 0.06-0.01 0.01-0.01 0.03-0.02 0.05l-0.06 0.24c0 0.02-0.01 0.04-0.01 0.06-0.03 0.1-0.05 0.2-0.07 0.29-0.01 0.02-0.01 0.05-0.02 0.07-0.02 0.09-0.04 0.19-0.06 0.28-0.01 0.02-0.01 0.05-0.02 0.07-0.02 0.08-0.04 0.17-0.06 0.25v0.03c-0.01 0.02-0.01 0.05-0.02 0.07l-0.06 0.27c0 0.03-0.01 0.06-0.01 0.08-0.02 0.09-0.04 0.18-0.05 0.27-0.01 0.02-0.02 0.05-0.02 0.07-0.01 0.05-0.02 0.09-0.02 0.13l-0.03 0.15c-0.01 0.02-0.01 0.04-0.01 0.06-0.02 0.1-0.04 0.19-0.06 0.28 0 0.02 0 0.04-0.01 0.06-0.01 0.09-0.03 0.19-0.05 0.29v0.04c-0.01 0-0.01 0.01-0.01 0.02-0.01 0.09-0.03 0.18-0.05 0.28v0.02c-0.02 0.1-0.03 0.21-0.05 0.31v0.01c-0.03 0.19-0.06 0.37-0.09 0.56 0 0.04-0.01 0.09-0.01 0.13-0.04 0.26-0.07 0.51-0.11 0.76 0 0.03 0 0.06-0.01 0.09-0.02 0.2-0.04 0.4-0.06 0.59l-0.06 0.57c-0.04 0.36-0.07 0.71-0.09 1.05-0.02 0.3-0.04 0.58-0.06 0.86 0 0.06-0.01 0.12-0.01 0.18h10.36c0-0.06-0.01-0.18-0.02-0.28-0.01-0.22-0.02-0.44-0.04-0.67-0.03-0.4-0.06-0.82-0.11-1.25-0.01-0.12-0.02-0.25-0.04-0.37l-0.06-0.6c-0.01-0.09-0.03-0.18-0.04-0.28-0.05-0.41-0.11-0.84-0.18-1.27 0-0.03 0-0.05-0.01-0.07v-0.01c-0.02-0.1-0.03-0.21-0.05-0.31v-0.02c-0.02-0.1-0.04-0.2-0.05-0.31-0.01-0.01-0.01-0.02-0.01-0.03 0-0.02-0.01-0.04-0.01-0.06-0.01-0.08-0.03-0.16-0.04-0.23 0-0.02-0.01-0.04-0.01-0.06-0.02-0.09-0.04-0.18-0.05-0.28-0.01-0.02-0.01-0.04-0.02-0.06l-0.03-0.18c-0.01-0.03-0.01-0.06-0.02-0.1 0-0.02-0.01-0.05-0.01-0.07m-1.43-5.25c-0.04-0.08-0.07-0.17-0.1-0.26-0.06-0.15-0.11-0.31-0.17-0.46-0.1-0.27-0.21-0.53-0.32-0.79-0.06-0.15-0.12-0.31-0.19-0.47 0 0-0.01-0.01-0.01-0.02-0.18-0.41-0.37-0.82-0.56-1.23l-0.39-0.78c-0.09-0.16-0.17-0.31-0.25-0.47-0.02-0.03-0.04-0.06-0.05-0.09-0.22-0.39-0.44-0.78-0.67-1.16-0.08-0.13-0.16-0.26-0.24-0.38-0.08 0.12-0.16 0.25-0.24 0.38-0.2 0.32-0.39 0.66-0.57 0.99-0.05 0.08-0.1 0.17-0.15 0.26-0.08 0.16-0.16 0.31-0.24 0.47-0.14 0.26-0.27 0.52-0.4 0.78-0.16 0.34-0.32 0.68-0.46 1.01-0.04 0.08-0.07 0.16-0.11 0.24-0.06 0.16-0.13 0.32-0.19 0.47-0.11 0.26-0.21 0.52-0.31 0.79-0.06 0.15-0.12 0.31-0.18 0.46-0.17 0.46-0.32 0.92-0.47 1.37-0.04 0.15-0.09 0.27-0.13 0.44h6.9c-0.01-0.06-0.03-0.09-0.04-0.13-0.14-0.47-0.3-0.94-0.46-1.42m0.7 12.69h-8.87c-0.01 0.41-0.02 0.82-0.02 1.17h10.49c-0.01-0.35-0.02-0.76-0.03-1.17z" fill="#e3a261"/><path transform="matrix(1 0 0 -1 -126.39 748.61)" d="m176.45 717.67h0.52v4.78h-0.52z" fill="#d24040"/><path transform="matrix(1 0 0 -1 55.19 26.15)" d="m0 0v-4.78h0.58v4.78z" fill="#d24040"/><path transform="matrix(1 0 0 -1 50.6 26.15)" d="M0 0H1.38V2.16H-.55V0Z" fill="#d24040"/><path transform="matrix(1 0 0 -1 55.2 30.93)" d="M0 0H-5.15V-.88H.57V0Z" fill="#a03732"/><path transform="matrix(1 0 0 -1 -126.39 748.61)" d="m178.37 722.45h3.79v2.16h-3.79z" fill="#a03732"/></g></svg>
